<svg width="26" height="26" viewBox="0 0 26 26" fill="none" xmlns="http://www.w3.org/2000/svg">
<path d="M25.1305 22.6676C24.3273 21.9516 23.6241 21.1307 23.0399 20.2272C22.4021 18.9799 22.0198 17.6179 21.9155 16.2209V12.1064C21.921 9.91222 21.1251 7.79154 19.6773 6.14282C18.2295 4.49409 16.2294 3.4308 14.0529 3.15273V2.07829C14.0529 1.78339 13.9358 1.50057 13.7272 1.29204C13.5187 1.08352 13.2359 0.96637 12.941 0.96637C12.6461 0.96637 12.3633 1.08352 12.1547 1.29204C11.9462 1.50057 11.8291 1.78339 11.8291 2.07829V3.16939C9.67208 3.46751 7.6962 4.53722 6.26741 6.18041C4.83862 7.82359 4.05373 9.9289 4.05812 12.1064V16.2209C3.95381 17.6179 3.57152 18.9799 2.93371 20.2272C2.35974 21.1287 1.66786 21.9494 0.876448 22.6676C0.787603 22.7456 0.716399 22.8417 0.667571 22.9494C0.618743 23.0571 0.593411 23.174 0.593262 23.2922V24.425C0.593262 24.6459 0.681013 24.8577 0.837212 25.0139C0.993411 25.1701 1.20526 25.2579 1.42616 25.2579H24.5808C24.8017 25.2579 25.0135 25.1701 25.1697 25.0139C25.3259 24.8577 25.4137 24.6459 25.4137 24.425V23.2922C25.4135 23.174 25.3882 23.0571 25.3394 22.9494C25.2905 22.8417 25.2193 22.7456 25.1305 22.6676ZM2.32569 23.5921C3.10063 22.8435 3.78293 22.0046 4.35797 21.0934C5.16139 19.5871 5.63016 17.9251 5.73225 16.2209V12.1064C5.69922 11.1303 5.86295 10.1575 6.2137 9.24594C6.56446 8.33441 7.09505 7.50278 7.77389 6.80058C8.45274 6.09838 9.26594 5.53996 10.1651 5.15858C11.0642 4.7772 12.0309 4.58066 13.0076 4.58066C13.9843 4.58066 14.951 4.7772 15.8502 5.15858C16.7493 5.53996 17.5625 6.09838 18.2414 6.80058C18.9202 7.50278 19.4508 8.33441 19.8015 9.24594C20.1523 10.1575 20.316 11.1303 20.283 12.1064V16.2209C20.3851 17.9251 20.8539 19.5871 21.6573 21.0934C22.2323 22.0046 22.9146 22.8435 23.6896 23.5921H2.32569Z" fill="white"/>
</svg>
